<?xml version="1.0" standalone="no"?><!DOCTYPE svg PUBLIC "-//W3C//DTD SVG 1.1//EN" "http://www.w3.org/Graphics/SVG/1.1/DTD/svg11.dtd"><svg class="icon" width="32px" height="32.00px" viewBox="0 0 1024 1024" version="1.1" xmlns="http://www.w3.org/2000/svg"><path fill="#595959" d="M289.103444 67.119677c17.175171 0.066515 31.840172 1.620917 41.769312 8.950859 12.68388 9.363252 27.325345 38.59297 40.596604 70.302159 13.659091 32.636305 25.867134 67.898413 32.996508 86.830601 5.055133 13.424754 21.980617 53.651944 16.907065 72.599482-9.543354 35.632545-57.501622 35.68678-71.604828 65.637929-10.822486 22.984481 10.677177 50.925856 19.890003 65.637929 16.591887 26.494421 35.499515 51.071166 55.16746 74.922387 24.531719 29.749558 50.244334 58.371432 74.119091 88.177272 26.134217 32.627095 57.906851 70.828139 94.478791 92.489484 47.960315 28.40698 69.844741-67.99358 122.076336-49.974182 55.4458 19.128663 57.101509 20.399609 100.902084 52.590775 6.176676 4.539386 22.291702 14.119579 38.317701 26.482141 23.192212 17.891486 48.800449 41.494043 53.965076 51.456952 10.253528 19.783579 0.898463 46.990221-6.961552 62.653969-21.88545 43.61331-54.374398 79.173201-95.473445 103.428627-54.018288 31.881105-118.154004 15.858176-174.195368-12.125155-44.597731-22.269189-84.070744-52.111868-109.239983-71.414493-41.297568-31.671327-79.121012-66.965158-114.475218-104.708783-27.854395-29.737278-54.174853-60.994166-79.45461-93.198635-28.646434-36.494169-57.627489-72.115458-84.885296-109.497856-33.17661-45.499263-63.800072-93.607958-88.159876-149.075247-22.437012-51.089585-69.121264-163.648151-29.835516-230.726895 23.802102-40.641629 67.228147-71.433936 113.37414-89.505523C254.649747 73.072249 272.614911 73.751724 289.103444 67.119677z" /></svg>